# xmcd CD database file
#
# Track frame offsets:
#	150
#	6462
#	28700
#	47112
#	68962
#	88612
#	109362
#	132000
#	156437
#	181387
#
# Disc length: 2748 seconds
#
# Revision: 0
# Processed by: cddbd v1.5.1PL0 Copyright (c) Steve Scherf et al.
# Submitted via: CDex 1.40Release
#
DISCID=890aba0a
DTITLE=山本英美 - BOY-issue　恋をしようよ
DYEAR=1900
DGENRE=J ポップ
TTITLE0=ティーンエイジ(INSTRUMENTAL)
TTITLE1=LOVIN'YOU
TTITLE2=恋をしようよ
TTITLE3=シャンペンと青空
TTITLE4=真夏のSplender
TTITLE5=星をならべかえた夜
TTITLE6=わかってあげたい(LET ME KNOW)
TTITLE7=ETERNITY OF LOVE
TTITLE8=ごめんね いつも
TTITLE9=ティーンエイジ
EXTD=
EXTT0=
EXTT1=
EXTT2=
EXTT3=
EXTT4=
EXTT5=
EXTT6=
EXTT7=
EXTT8=
EXTT9=
PLAYORDER=
